<svg id="Layer_1" data-name="Layer 1" xmlns="http://www.w3.org/2000/svg" viewBox="0 0 3249.68 871.62"><defs><style>.cls-1{fill:#fff;fill-rule:evenodd;}.cls-2{fill:#fcfcfc;}</style></defs><title>logo</title><path class="cls-1" d="M3348.78,2138.14h-61v2.33L3392.29,2298v112.49h51.3V2298L3552,2140.47v-2.33h-61.79l-72.27,112.49ZM3171.92,2307l-133.28-168.9h-41.58v272.39h51.29V2226.86l143,183.67h31.86V2138.14h-51.29Zm-334.62,4.41h-101l50.51-116.06Zm43.52,99.08h56l-122-272.39h-56l-122,272.39h55.57l23.31-51.29h142.22Zm-383.58-272.39c-42.74-.39-85.49,0-128.23,0v272.39h51.29v-80.05h76.94C2630.53,2330.48,2630.14,2138.14,2497.24,2138.14Zm-76.94,49h76.94c65.28,0,65.67,96.37,0,96.37H2420.3Zm-183.85,223.43h51.3V2138.91h-58.68L2144,2255.68l-85.1-116.77h-59.06v271.62h51.29V2213.07l86.65,118.32h10.11l88.59-117.93Zm-447.31-230.81c64.12,0,89.77,51.29,89,97.14-.78,44.69-24.87,92.87-89,92.87s-88.2-47.79-89.37-92.48C1698.61,2231.4,1725,2179.72,1789.14,2179.72Zm0-46.63c-94,0-139.88,71.88-139.88,143.38s44.3,140.28,139.88,140.28,138.73-70.33,139.51-140.67C1929.42,2205,1882.79,2133.09,1789.14,2133.09ZM1564.49,2341c-17.87,17.87-44.68,27.59-68.39,27.59-67.22,0-93.25-47-93.65-92.1-.38-45.46,28-94.42,93.65-94.42,23.71,0,47.8,8.16,65.67,25.64l34.2-33c-28-27.59-63-41.58-99.87-41.58-98.3,0-144.55,72.28-144.16,143.38.39,70.73,43.13,140.28,144.16,140.28,39.25,0,75.39-12.82,103.37-40.41Z" transform="translate(-302.32 -1875.17)"/><path class="cls-1" d="M3336.33,2595.51v-94.86h68.49v11.13h-55.91v29.14h52.34v11.14h-52.34v32.32h58.17v11.13Zm-145.2,0v-94.86H3204l49.77,74.46v-74.46h12.06v94.86H3253l-49.77-74.45v74.45Zm-83.69,0v-94.86H3120v94.86Zm-125.47,0v-94.86h12.59v83.73h46.64v11.13Zm-107.26-37.23v-11.13h40.14v35.16a70.85,70.85,0,0,1-19.08,11.08,56.85,56.85,0,0,1-20.18,3.71,53.77,53.77,0,0,1-25.4-6,39.57,39.57,0,0,1-17.22-17.29,54.44,54.44,0,0,1-5.83-25.28,58.62,58.62,0,0,1,5.79-25.86,38.36,38.36,0,0,1,16.65-17.8q10.86-5.83,25-5.83a49.44,49.44,0,0,1,18.59,3.33,31.09,31.09,0,0,1,13,9.28q4.73,6,7.17,15.55l-11.33,3.09a35.87,35.87,0,0,0-5.29-11.4,21.68,21.68,0,0,0-9.06-6.62,33,33,0,0,0-13.05-2.5,38.42,38.42,0,0,0-14.86,2.63,27.73,27.73,0,0,0-10.11,6.91,32.9,32.9,0,0,0-6,9.38,50,50,0,0,0-3.62,19.13q0,12.72,4.34,21.28a28.08,28.08,0,0,0,12.7,12.7,39.3,39.3,0,0,0,17.71,4.15,42.08,42.08,0,0,0,15.9-3.15c5.17-2.13,9.07-4.36,11.75-6.77v-17.77Zm-165-1.72H2742l-9.89-26.3c-3-8-5.23-14.6-6.8-19.81a134,134,0,0,1-5.23,18.26Zm-27.3,39,36.39-94.86h13.81l38.62,94.86H2757l-11-28.75H2706l-10.29,28.75Zm-85.71,0v-83.73h-31.27v-11.13h75.12v11.13h-31.27v83.73Zm-195.77,0v-94.86h68.5v11.13h-55.91v29.14h52.32v11.14h-52.32v32.32h58.16v11.13Zm-160,0v-94.86h18.81l22.44,67.15q3.1,9.38,4.52,14,1.62-5.16,5.08-15.21l22.83-66h16.81v94.86h-12.06v-79.36l-27.69,79.36h-11.31L2253,2514.69v80.82Zm-142.78-46q0,17.11,9.21,27a30.35,30.35,0,0,0,23.12,9.85c9.45,0,17.2-3.31,23.32-9.94s9.14-16,9.14-28.22A48.41,48.41,0,0,0,2159,2528a30,30,0,0,0-11.44-13.36,31.12,31.12,0,0,0-16.91-4.75,32.07,32.07,0,0,0-22.92,9.15Q2098.14,2528.21,2098.14,2549.56Zm-13-.22q0-23.6,12.69-37t32.75-13.33a45.57,45.57,0,0,1,23.69,6.27,40.86,40.86,0,0,1,16.08,17.49,56.59,56.59,0,0,1,5.54,25.41,55.65,55.65,0,0,1-5.83,25.79,39.56,39.56,0,0,1-16.49,17.23,47.19,47.19,0,0,1-23.05,5.85,44.92,44.92,0,0,1-24-6.47,41.64,41.64,0,0,1-16-17.64A53.39,53.39,0,0,1,2085.16,2549.34ZM1947.4,2565l11.79-1.06a26.2,26.2,0,0,0,3.91,11.75,21.62,21.62,0,0,0,9.54,7.42,36.17,36.17,0,0,0,14.55,2.82,34.65,34.65,0,0,0,12.67-2.14,17.55,17.55,0,0,0,8.17-5.89,13.72,13.72,0,0,0,2.7-8.13,12.29,12.29,0,0,0-2.59-7.77c-1.72-2.22-4.57-4.07-8.54-5.59q-3.81-1.45-16.9-4.62t-18.3-5.92a25.68,25.68,0,0,1-10.09-8.85,21.58,21.58,0,0,1-3.33-11.81,24.06,24.06,0,0,1,4.08-13.45,25.18,25.18,0,0,1,11.9-9.49,44.88,44.88,0,0,1,17.4-3.25,47.39,47.39,0,0,1,18.59,3.4,26.68,26.68,0,0,1,12.39,10,28.69,28.69,0,0,1,4.66,14.95l-12,.93q-1-9-6.56-13.56c-3.73-3.07-9.26-4.59-16.54-4.59q-11.4,0-16.61,4.17t-5.21,10.07a10.84,10.84,0,0,0,3.69,8.41c2.43,2.19,8.72,4.46,18.93,6.76s17.19,4.33,21,6.05c5.5,2.54,9.59,5.74,12.21,9.65a23.42,23.42,0,0,1,3.93,13.45,25.66,25.66,0,0,1-4.32,14.24,28.5,28.5,0,0,1-12.44,10.4,43.43,43.43,0,0,1-18.26,3.71q-12.84,0-21.53-3.76a29.86,29.86,0,0,1-13.62-11.28A31.77,31.77,0,0,1,1947.4,2565Zm-133.13,30.47v-94.86h68.5v11.13h-55.91v29.14h52.33v11.14h-52.33v32.32H1885v11.13Zm-158.07,0-25-94.86h13l14.22,62.2q2.31,9.78,4.09,19.39,3.74-15.16,4.37-17.49l17.93-64.1H1700l13.61,48a285.42,285.42,0,0,1,7.39,33.57q1.89-9,4.84-20.6l14.81-61h12.61l-26,94.86h-12.21l-19.89-72.27q-2.52-9.07-3.07-11.13c-1.08,4.33-2,8-2.89,11.1l-19.9,72.3Zm-132-39h32.32l-9.88-26.3c-3-8-5.24-14.6-6.8-19.81a134.09,134.09,0,0,1-5.24,18.26Zm-27.29,39,36.39-94.86h13.8l38.62,94.86h-14.29l-11-28.75h-40l-10.29,28.75Z" transform="translate(-302.32 -1875.17)"/><path class="cls-2" d="M881.84,2411.85,623,2141.53,364.19,2411.85,623,2682.17ZM638.48,2093.07,928.24,2395.7l15.47,16.15L928.24,2428,638.48,2730.63,623,2746.79l-15.47-16.16L317.79,2428l-15.47-16.16,15.47-16.15,289.76-302.63L623,2076.92Z" transform="translate(-302.32 -1875.17)"/><path class="cls-2" d="M1142.13,2403.31,883.31,2133,624.48,2403.31l258.83,270.31ZM898.77,2084.52l289.76,302.63,15.47,16.16-15.47,16.15L898.77,2722.08l-15.46,16.16-15.47-16.16L578.08,2419.46l-15.46-16.15,15.46-16.16,289.76-302.63,15.47-16.15Z" transform="translate(-302.32 -1875.17)"/><path class="cls-2" d="M756.35,1891.32l163.71,171,15.46,16.15-15.46,16.15L764.54,2257l-15.47,16.15L733.6,2257l-163.7-171-15.47-16.15,15.47-16.15,155.52-162.43,15.46-16.15Zm117.31,187.13L740.88,1939.78,616.3,2069.9l132.77,138.67Z" transform="translate(-302.32 -1875.17)"/></svg>